<svg width="874" height="916" viewBox="0 0 874 916" fill="none" xmlns="http://www.w3.org/2000/svg">
<rect width="874" height="916" rx="100" fill="#231F20"/>
<ellipse cx="436.5" cy="346" rx="221.5" ry="221" fill="#F67369"/>
<path d="M583.373 587.643C587.421 574.373 574.938 576.058 555.804 584.687C493.687 612.698 497.854 695.954 563.571 713.963C656.344 739.387 754.194 732.543 732.363 616.86C728.304 595.355 706.549 582.853 685.007 586.707C655.825 591.927 661.659 647.606 632.09 649.718C614.381 650.982 575.204 614.418 583.373 587.643Z" fill="#F67369"/>
<path d="M291.575 581.917C287.526 568.648 300.009 570.333 319.144 578.961C381.26 606.973 377.094 690.229 311.376 708.238C218.603 733.662 120.753 726.818 142.584 611.134C146.643 589.629 168.398 577.128 189.941 580.982C219.122 586.202 213.288 641.881 242.858 643.992C260.566 645.257 299.743 608.693 291.575 581.917Z" fill="#F67369"/>
<path d="M536.365 598.134C528.009 558.793 490.4 530.022 452.595 543.746C422.41 554.702 406.817 588.257 417.269 618.619C446.597 703.808 466.92 761.588 548.194 783.497C574.734 790.651 602.101 778.808 620.142 758.069C658.378 714.116 638.771 658.355 581.395 648.266C558.952 644.319 543.949 633.844 536.365 598.134Z" fill="#F67369"/>
<path d="M356.582 592.409C364.938 553.068 402.548 524.297 440.353 538.021C470.537 548.977 486.131 582.532 475.678 612.894C446.35 698.083 426.027 755.863 344.753 777.772C318.213 784.926 290.846 773.083 272.805 752.344C234.57 708.391 254.176 652.63 311.552 642.541C333.995 638.594 348.998 628.119 356.582 592.409Z" fill="#F67369"/>
<rect x="331.602" y="478" width="78.8541" height="115.493" rx="39.4271" transform="rotate(43.5693 331.602 478)" fill="#F67369"/>
<rect x="488" y="491.682" width="64" height="108" transform="rotate(-26.625 488 491.682)" fill="#F67369"/>
<path d="M317.71 466.037C315.822 458.487 321.507 451.165 329.289 451.125L463.322 450.429C468.802 450.4 473.606 454.089 474.993 459.39L516.924 619.608C518.881 627.084 513.364 634.433 505.64 634.642L370.492 638.295C364.867 638.447 359.892 634.67 358.527 629.211L317.71 466.037Z" fill="white"/>
<path d="M337.661 443.901C335.773 436.352 341.459 429.029 349.24 428.989L483.273 428.293C488.753 428.265 493.557 431.953 494.944 437.255L536.876 597.472C538.832 604.948 533.316 612.297 525.591 612.506L390.443 616.159C384.818 616.311 379.843 612.534 378.478 607.075L337.661 443.901Z" fill="white"/>
<path d="M326.753 531.101C330.655 522.362 321.558 509.48 312.803 513.344C238.303 535.844 239.954 642.816 350.688 624.255C389.7 621.914 407.609 568.555 386.671 563.02C370.004 558.614 310.96 566.48 326.753 531.101Z" fill="#F67369"/>
<path d="M527.427 530.175C517.922 516.408 524.788 494.155 541.517 494.155C545.392 494.155 549.175 495.446 552.136 497.945C618.627 554.078 640.528 650.401 527.875 645.283C521.294 644.984 514.599 645.269 508.039 644.659C467.976 640.935 443.174 589.824 464.699 580.111C483.391 571.677 554.587 569.515 527.427 530.175Z" fill="#F67369"/>
<path d="M717.078 656.107C731.712 644.058 737.752 623.779 729.133 606.896C722.999 594.882 716.444 585.552 708.685 577.805C686.589 555.743 645.795 558.256 631.227 585.874C630.333 587.569 629.58 589.281 629 591.001C620.957 614.878 646.177 641.081 667.262 658.001C681.942 669.78 702.547 668.07 717.078 656.107Z" fill="#F67369"/>
<path d="M157.869 650.382C143.235 638.333 137.195 618.054 145.815 601.171C151.948 589.157 158.503 579.827 166.262 572.08C188.359 550.018 229.152 552.531 243.72 580.149C244.614 581.844 245.368 583.556 245.947 585.275C253.991 609.153 228.771 635.356 207.685 652.276C193.005 664.055 172.4 662.345 157.869 650.382Z" fill="#F67369"/>
<ellipse cx="513" cy="346" rx="30" ry="66" fill="#373737"/>
<ellipse cx="364" cy="346" rx="30" ry="66" fill="#373737"/>
</svg>
